# AST/ASF file generated using VICON BodyLanguage
# -----------------------------------------------
:version 1.10
:name VICON
:units
  mass 1.0
  length 0.45
  angle deg
:documentation
   .ast/.asf automatically generated from VICON data using
   VICON BodyBuilder and BodyLanguage model FoxedUp or BRILLIANT.MOD
:root
   order TX TY TZ RX RY RZ
   axis XYZ
   position 0 0 0  
   orientation 0 0 0 
:bonedata
  begin
     id 1 
     name lhipjoint
     direction 0.643824 -0.71708 0.266994 
     length 2.52133 
     axis 0 0 0  XYZ
  end
  begin
     id 2 
     name lfemur
     direction 0.34202 -0.939693 0  
     length 7.51824  
     axis 0 0 20  XYZ
    dof rx ry rz
    limits (-160.0 20.0)
           (-70.0 70.0)
           (-60.0 70.0)
  end
  begin
     id 3 
     name ltibia
     direction 0.34202 -0.939693 0   
     length 7.3685   
     axis 0 0 20   XYZ
    dof rx
    limits (-10.0 170.0)
  end
  begin
     id 4 
     name lfoot
     direction 0.105419 -0.289636 0.951314   
     length 2.20972   
     axis -90 7.62852e-016 20   XYZ
    dof rx rz
    limits (-45.0 90.0)
           (-70.0 20.0)
  end
  begin
     id 5 
     name ltoes
     direction 1.53549e-011 -4.21833e-011 1   
     length 1.10139   
     axis -90 7.62852e-016 20   XYZ
    dof rx
    limits (-90.0 20.0)
  end
  begin
     id 6 
     name rhipjoint
     direction -0.608823 -0.743445 0.276811   
     length 2.43192  
     axis 0 0 0  XYZ 
  end
  begin
     id 7 
     name rfemur
     direction -0.34202 -0.939693 0   
     length 7.69715   
     axis 0 0 -20   XYZ
    dof rx ry rz
    limits (-160.0 20.0)
           (-70.0 70.0)
           (-70.0 60.0)
  end
  begin
     id 8 
     name rtibia
     direction -0.34202 -0.939693 0   
     length 7.44924   
     axis 0 0 -20   XYZ
    dof rx
    limits (-10.0 170.0)
 end
 begin
     id 9 
     name rfoot
     direction -0.103614 -0.284677 0.953007   
     length 2.22623  
     axis -90 -7.62852e-016 -20   XYZ
    dof rx rz
    limits (-45.0 90.0)
           (-20.0 70.0)
  end
  begin
     id 10 
     name rtoes
     direction -1.53537e-011 -4.22026e-011 1   
     length 1.11   
     axis -90 -7.62852e-016 -20   XYZ
    dof rx
    limits (-90.0 20.0)
  end
  begin
     id 11 
     name lowerback
     direction -0.0101212 0.99662 -0.0815298   
     length 2.08277   
     axis 0 0 0   XYZ
    dof rx ry rz
    limits (-20.0 45.0)
           (-30.0 30.0)
           (-30.0 30.0)
  end
  begin
     id 12 
     name upperback
     direction 0.024314 0.999591 -0.0150645   
     length 2.08524   
     axis 0 0 0   XYZ
    dof rx ry rz
    limits (-20.0 45.0)
           (-30.0 30.0)
           (-30.0 30.0)
  end
  begin
     id 13 
     name thorax
     direction 0.0285959 0.999323 0.0231357   
     length 2.09645   
     axis 0 0 0   XYZ
    dof rx ry rz
    limits (-20.0 45.0)
           (-30.0 30.0)
           (-30.0 30.0)
  end
  begin
     id 14 
     name lowerneck
     direction -0.065512 0.979301 0.191515   
     length 1.63798   
     axis 0 0 0   XYZ
    dof rx ry rz
    limits (-20.0 45.0)
           (-30.0 30.0)
           (-30.0 30.0)
  end
  begin
     id 15 
     name upperneck
     direction 0.0498479 0.98191 -0.182667   
     length 1.68731   
     axis 0 0 0   XYZ
    dof rx ry rz
    limits (-20.0 45.0)
           (-30.0 30.0)
           (-30.0 30.0)
  end
  begin
     id 16
     name head
     direction 0.0230358 0.996257 -0.0833175  
     length 1.69785  
     axis 0 0 0   XYZ
    dof rx ry rz
    limits (-20.0 45.0)
           (-30.0 30.0)
           (-30.0 30.0)
  end
  begin
     id 17 
     name lclavicle
     direction 0.967963 0.201165 -0.150269  
     length 3.63976  
     axis 0 0 0   XYZ
    dof ry rz
    limits (-20.0 10.0)
           (0.0 20.0)
  end
  begin
     id 18 
     name lhumerus
     direction 1 -4.48954e-011 -2.92837e-028   
     length 5.32462   
     axis 180 -30 -90   XYZ
    dof rx ry rz
    limits (-60.0 90.0)
           (-90.0 90.0)
           (-90.0 90.0)
  end
  begin
     id 19
     name lradius
     direction 1 -4.48958e-011 -6.39511e-027   
     length 3.48402   
     axis 180 -30 -90   XYZ
    dof rx
    limits (-10.0 170.0)
  end
  begin
     id 20
     name lwrist
     direction 1 -4.48975e-011 -1.1413e-026   
     length 1.74201   
     axis 6.88575e-015 90 90   XYZ
    dof ry
    limits (-180.0 0.0)
 end
  begin
     id 21 
     name lhand
     direction 1 -4.48899e-011 -2.28192e-026   
     length 0.572476   
     axis 1.45643e-014 90 90   XYZ
    dof rx rz
    limits (-90.0 90.0)
           (-45.0 45.0)
  end
  begin
     id 22 
     name lfingers
     direction 1 -4.49155e-011 -4.5684e-026   
     length 0.461545   
     axis 2.91283e-014 90 90   XYZ
    dof rx
    limits (0.0 90.0)
  end
  begin
     id 23
     name lthumb
     direction 0.707107 -6.34943e-011 0.707107   
     length 0.662688   
     axis -90 45 -2.25915e-014   XYZ
    dof rx rz
    limits (-45.0 45.0)
           (-45.0 45.0)
  end
  begin
     id 24 
     name rclavicle
     direction -0.964103 0.264019 -0.0282629   
     length 3.54491  
     axis 0 0 0   XYZ 
    dof ry rz
    limits (-10.0 20.0)
           (-20.0 0.0)
  end
  begin
     id 25 
     name rhumerus
     direction -1 -4.48964e-011 -2.45032e-027  
     length 5.33589   
     axis 180 30 90   XYZ
    dof rx ry rz
    limits (-90.0 60.0)
           (-90.0 90.0)
           (-90.0 90.0)
  end
  begin
     id 26 
     name rradius
     direction -1 -4.48987e-011 -1.55093e-027   
     length 3.64134   
     axis 180 30 90   XYZ
    dof rx
    limits (-10.0 170.0)
  end
  begin
     id 27 
     name rwrist
     direction -1 -4.4897e-011 -1.14128e-026   
     length 1.82067   
     axis 6.88575e-015 -90 -90   XYZ
    dof ry
    limits (-180.0 0.0)
  end
  begin
     id 28
     name rhand
     direction -1 -4.49021e-011 -2.28301e-026   
     length 0.734811   
     axis 1.45643e-014 -90 -90   XYZ
    dof rx rz
    limits (-90.0 90.0)
           (-45.0 45.0)
  end
  begin
     id 29
     name rfingers
     direction -1 -4.48862e-011 -4.56319e-026   
     length 0.592424   
     axis 2.91283e-014 -90 -90   XYZ
    dof rx
    limits (0.0 90.0)
  end
  begin
     id 30
     name rthumb
     direction -0.707107 -6.34978e-011 0.707107   
     length 0.850605   
     axis -90 -45 2.25915e-014   XYZ
    dof rx rz
    limits (-45.0 45.0)
           (-45.0 45.0)
  end
:hierarchy
  begin
    root lhipjoint rhipjoint lowerback
    lhipjoint lfemur
    lfemur ltibia
    ltibia lfoot
    lfoot ltoes
    rhipjoint rfemur
    rfemur rtibia
    rtibia rfoot
    rfoot rtoes
    lowerback upperback
    upperback thorax
    thorax lowerneck lclavicle rclavicle
    lowerneck upperneck
    upperneck head
    lclavicle lhumerus
    lhumerus lradius
    lradius lwrist
    lwrist lhand lthumb
    lhand lfingers
    rclavicle rhumerus
    rhumerus rradius
    rradius rwrist
    rwrist rhand rthumb
    rhand rfingers
  end

#!OML:ASF F:\VICON\USERDATA\INSTALL\rory3\rory3.ASF
:FULLY-SPECIFIED
:DEGREES
1
root -3.91009 17.9362 -3.98348 5.24652 1.22851 -0.147822
lowerback 4.43628 -1.75093 -2.16478
upperback 0.0549489 -2.40553 1.60772
thorax -2.27117 -1.1687 3.01886
lowerneck -20.9909 -8.76128 -13.1103
upperneck 21.5175 -9.41105 5.55961
head 11.3876 -4.68666 2.61969
rclavicle 6.68413e-015 -8.15017e-015
rhumerus -31.5112 -5.52287 -81.2718
rradius 34.9188
rwrist 20.2779
rhand -18.5945 1.1592
rfingers 7.12502
rthumb 7.69658 -28.6807
lclavicle 6.68413e-015 -8.15017e-015
lhumerus -26.0547 7.22054 84.9179
lradius 37.8447
lwrist -5.68538
lhand -8.85572 30.6222
lfingers 7.12502
lthumb 17.0853 59.891
rfemur -12.3432 2.99062 22.5155
rtibia 27.6377
rfoot -18.3358 -3.01205
rtoes 12.4882
lfemur -15.4835 -2.93698 -14.8581
ltibia 26.3263
lfoot -9.59229 11.7042
ltoes -19.625
2
root -3.9376 17.9379 -3.99985 5.2853 1.01373 -0.184358
lowerback 4.50144 -1.70516 -2.09385
upperback 0.107777 -2.34032 1.67091
thorax -2.25785 -1.13746 3.04167
lowerneck -21.0075 -8.73191 -13.005
upperneck 21.5181 -9.37943 5.47601
head 11.3769 -4.67364 2.57777
rclavicle 1.06598e-014 -4.96962e-015
rhumerus -31.4313 -5.7677 -81.0119
rradius 34.4507
rwrist 20.5754
rhand -18.6724 1.06656
rfingers 7.12502
rthumb 7.62134 -28.7761
lclavicle 1.06598e-014 -4.96962e-015
lhumerus -26.1237 6.99143 85.1478
lradius 38.182
lwrist -5.59393
lhand -8.95769 30.6179
lfingers 7.12502
lthumb 16.9872 59.8951
rfemur -12.4616 3.05548 22.6394
rtibia 27.6278
rfoot -18.2716 -2.94302
rtoes 12.608
lfemur -15.5838 -2.85841 -14.724
ltibia 26.3584
lfoot -9.51086 11.8633
ltoes -19.3489
3
root -3.96841 17.9401 -4.01715 5.40562 0.663894 -0.127632
lowerback 4.48246 -1.62064 -2.18349
upperback 0.11131 -2.23084 1.7221
thorax -2.24552 -1.08194 3.13776
lowerneck -20.9226 -8.66965 -12.9264
upperneck 21.5619 -9.30915 5.39015
head 11.3613 -4.64847 2.54923
rclavicle -1.59028e-015 7.55382e-015
rhumerus -31.3411 -6.13853 -80.6679
rradius 33.8578
rwrist 21.0026
rhand -18.6566 1.2467
rfingers 7.12502
rthumb 7.63658 -28.5954
lclavicle -1.59028e-015 7.55382e-015
lhumerus -26.3316 6.82059 85.3615
lradius 38.5412
lwrist -5.52222
lhand -8.99151 30.5871
lfingers 7.12502
lthumb 16.9546 59.8671
rfemur -12.7061 3.28538 22.6511
rtibia 27.661
rfoot -18.2189 -2.90009
rtoes 12.8541
lfemur -15.7361 -2.59021 -14.6946
ltibia 26.3517
lfoot -9.38467 11.9694
ltoes -19.0675
4
root -3.9962 17.9432 -4.03239 5.56649 0.249969 -0.0845609
lowerback 4.3858 -1.5156 -2.21645
upperback 0.152938 -2.09019 1.76037
thorax -2.15567 -1.01331 3.18337
lowerneck -20.9082 -8.61478 -12.8923
upperneck 21.5794 -9.23361 5.34562
head 11.3532 -4.6176 2.5417
rclavicle -3.13086e-015 -1.47101e-014
rhumerus -31.1578 -6.59625 -80.3488
rradius 33.3483
rwrist 21.6391
rhand -18.6883 1.24955
rfingers 7.12502
rthumb 7.606 -28.5937
lclavicle -3.13086e-015 -1.47101e-014
lhumerus -26.4409 6.68469 85.5772
lradius 38.8034
lwrist -5.49379
lhand -9.06271 30.1942
lfingers 7.12502
lthumb 16.8861 59.4801
rfemur -13.0022 3.4034 22.6604
rtibia 27.6667
rfoot -18.0262 -2.64682
rtoes 12.9735
lfemur -15.9204 -2.31169 -14.6799
ltibia 26.38
lfoot -9.22473 12.1656
ltoes -19.3679
5
root -4.01992 17.9481 -4.04531 5.67983 -0.00958948 -0.106928
lowerback 4.33219 -1.45605 -2.09351
upperback 0.223992 -2.00344 1.78492
thorax -2.06191 -0.973492 3.1313
lowerneck -20.9679 -8.60533 -12.8358
upperneck 21.5675 -9.21944 5.30904
head 11.3532 -4.60954 2.52026
rclavicle -4.12478e-015 1.03368e-014
rhumerus -31.0516 -7.03242 -80.0746
rradius 32.992
rwrist 22.2701
rhand -18.8567 1.04093
rfingers 7.12502
rthumb 7.44351 -28.8081
lclavicle -4.12478e-015 1.03368e-014
lhumerus -26.4871 6.51112 85.7689
lradius 38.9547
lwrist -5.55018
lhand -9.80451 28.9091
lfingers 7.12502
lthumb 16.1719 58.2545
rfemur -13.2121 3.3979 22.7465
rtibia 27.6818
rfoot -17.8914 -2.25358
rtoes 13.0282
lfemur -16.0638 -2.16863 -14.5912
ltibia 26.3936
lfoot -9.06133 12.3165
ltoes -19.6468
6
root -4.04455 17.9496 -4.05952 5.67893 -0.171771 -0.13505
lowerback 4.45815 -1.44182 -2.01836
upperback 0.28566 -1.98109 1.85063
thorax -2.07076 -0.963347 3.15848
lowerneck -21.0091 -8.5806 -12.7931
upperneck 21.6385 -9.17841 5.24473
head 11.3778 -4.59533 2.49607
rclavicle 1.82882e-014 -5.96354e-015
rhumerus -30.9705 -7.37271 -79.7677
rradius 32.4931
rwrist 22.3027
rhand -18.6509 0.954553
rfingers 7.12502
rthumb 7.64208 -28.8874
lclavicle 1.82882e-014 -5.96354e-015
lhumerus -26.5842 6.40977 85.9647
lradius 39.0842
lwrist -5.60177
lhand -10.8852 27.5438
lfingers 7.12502
lthumb 15.1311 56.9707
rfemur -13.2816 3.48159 22.8539
rtibia 27.6932
rfoot -17.8263 -2.06073
rtoes 13.5025
lfemur -16.1197 -2.11839 -14.4769
ltibia 26.4113
lfoot -8.90082 12.4335
ltoes -19.5998
7
root -4.06969 17.9513 -4.07189 5.68392 -0.298868 -0.112017
lowerback 4.57467 -1.46409 -2.02304
upperback 0.311199 -2.01096 1.92273
thorax -2.10495 -0.977724 3.24072
lowerneck -20.9143 -8.46966 -12.7325
upperneck 21.6528 -9.0398 5.18263
head 11.345 -4.53789 2.49172
rclavicle 5.36719e-015 -1.03368e-014
rhumerus -30.9246 -7.66629 -79.4714
rradius 31.9758
rwrist 22.2454
rhand -19.0379 1.20314
rfingers 7.12502
rthumb 7.26853 -28.652
lclavicle 5.36719e-015 -1.03368e-014
lhumerus -26.748 6.41712 86.1133
lradius 39.1642
lwrist -5.66628
lhand -11.3566 26.9044
lfingers 7.12502
lthumb 14.6769 56.365
rfemur -13.3628 3.60985 22.9169
rtibia 27.7164
rfoot -17.7459 -2.09413
rtoes 13.7147
lfemur -16.1768 -2.12363 -14.4116
ltibia 26.4247
lfoot -8.79067 12.5845
ltoes -19.3015
8
root -4.09006 17.9533 -4.08235 5.75115 -0.465648 0.0708326
lowerback 4.53845 -1.46706 -2.10842
upperback 0.36294 -2.01881 1.93282
thorax -2.02753 -0.982792 3.29736
lowerneck -20.8683 -8.35126 -12.6882
upperneck 21.6489 -8.88299 5.14252
head 11.3148 -4.46956 2.49974
rclavicle 1.68967e-014 -1.86858e-014
rhumerus -30.8251 -8.05975 -79.1337
rradius 31.6323
rwrist 22.7872
rhand -19.2708 0.738742
rfingers 7.12502
rthumb 7.04372 -29.1241
lclavicle 1.68967e-014 -1.86858e-014
lhumerus -26.8304 6.28276 86.3074
lradius 39.168
lwrist -5.69206
lhand -11.3111 26.8674
lfingers 7.12502
lthumb 14.7208 56.3247
rfemur -13.5424 3.57466 22.7847
rtibia 27.7793
rfoot -17.636 -2.05277
rtoes 13.0538
lfemur -16.2375 -2.0843 -14.5609
ltibia 26.4034
lfoot -8.66143 12.7233
ltoes -19.1604
9
root -4.11125 17.9518 -4.09425 5.729 -0.615327 0.195211
lowerback 4.56537 -1.46799 -2.16918
upperback 0.444879 -2.02326 1.95638
thorax -1.95496 -0.986707 3.35534
lowerneck -20.8491 -8.25798 -12.6099
upperneck 21.6974 -8.75449 5.0405
head 11.3074 -4.41877 2.47353
rclavicle -1.68967e-015 1.51076e-014
rhumerus -30.687 -8.53884 -78.786
rradius 31.0373
rwrist 22.8041
rhand -19.3921 1.09775
rfingers 7.12502
rthumb 6.92662 -28.7689
lclavicle -1.68967e-015 1.51076e-014
lhumerus -26.9277 6.07302 86.4949
lradius 39.1313
lwrist -5.70142
lhand -11.1246 27.0558
lfingers 7.12502
lthumb 14.9005 56.4999
rfemur -13.6382 3.5646 22.7284
rtibia 27.8501
rfoot -17.5235 -2.16778
rtoes 12.7103
lfemur -16.1993 -1.92213 -14.6559
ltibia 26.3751
lfoot -8.53931 12.7519
ltoes -19.0966
10
root -4.13489 17.9513 -4.10713 5.66819 -0.67744 0.28981
lowerback 4.74519 -1.49422 -2.23089
upperback 0.474807 -2.06315 1.99549
thorax -2.01826 -1.0053 3.4384
lowerneck -20.8335 -8.17117 -12.488
upperneck 21.8039 -8.63599 4.88054
head 11.3187 -4.37671 2.41705
rclavicle -8.89561e-015 1.11319e-014
rhumerus -30.6899 -9.07822 -78.386
rradius 30.5953
rwrist 23.3493
rhand -19.8276 1.77121
rfingers 7.12502
rthumb 6.50629 -28.1089
lclavicle -8.89561e-015 1.11319e-014
lhumerus -27.0882 5.91805 86.6605
lradius 38.9987
lwrist -5.84702
lhand -11.1813 26.9993
lfingers 7.12502
lthumb 14.8458 56.4475
rfemur -13.662 3.64938 22.7169
rtibia 27.9033
rfoot -17.4191 -2.53087
rtoes 12.7091
lfemur -16.1608 -1.90305 -14.6934
ltibia 26.3538
lfoot -8.40903 12.8169
ltoes -19.0933
11
root -4.15745 17.9542 -4.12128 5.74202 -0.738638 0.302991
lowerback 4.85756 -1.48497 -2.14292
upperback 0.467493 -2.04705 2.01979
thorax -2.09212 -0.99649 3.41705
lowerneck -20.8346 -8.09449 -12.3493
upperneck 21.8964 -8.54481 4.75996
head 11.3316 -4.34016 2.36713
rclavicle -8.54774e-015 7.95139e-015
rhumerus -30.7987 -9.55667 -78.0437
rradius 30.4123
rwrist 23.6002
rhand -20.2648 2.31642
rfingers 7.12502
rthumb 6.08415 -27.5762
lclavicle -8.54774e-015 7.95139e-015
lhumerus -27.2362 5.61259 86.8426
lradius 38.8788
lwrist -5.86208
lhand -11.4653 26.7145
lfingers 7.12502
lthumb 14.5722 56.1826
rfemur -13.8193 3.83216 22.779
rtibia 27.9479
rfoot -17.3109 -2.83795
rtoes 12.8754
lfemur -16.2646 -1.85606 -14.6328
ltibia 26.3167
lfoot -8.37699 12.8331
ltoes -18.7804
12
root -4.17739 17.9598 -4.13182 5.8496 -0.858971 0.342115
lowerback 4.7954 -1.46418 -2.06968
upperback 0.524743 -2.01444 2.03921
thorax -2.0026 -0.982996 3.39051
lowerneck -20.9844 -8.00746 -12.1713
upperneck 22.0458 -8.42259 4.60102
head 11.3875 -4.28898 2.29815
rclavicle 1.82882e-014 -6.75868e-015
rhumerus -30.7128 -9.97857 -77.7637
rradius 30.1116
rwrist 23.5361
rhand -20.0925 2.43447
rfingers 7.12502
rthumb 6.25047 -27.4533
lclavicle 1.82882e-014 -6.75868e-015
lhumerus -27.3027 5.43766 86.9901
lradius 38.757
lwrist -6.06509
lhand -11.2205 26.5884
lfingers 7.12502
lthumb 14.8081 56.0393
rfemur -14.0121 4.00785 22.7845
rtibia 28.0058
rfoot -17.2342 -2.87055
rtoes 13.4968
lfemur -16.339 -1.76692 -14.6165
ltibia 26.2318
lfoot -8.35719 12.8804
ltoes -18.0862
13
root -4.19572 17.9629 -4.13858 5.85455 -0.905616 0.539927
lowerback 4.79705 -1.50805 -2.15967
upperback 0.583458 -2.07776 2.04765
thorax -1.93489 -1.01583 3.45248
lowerneck -21.0766 -7.8864 -12.131
upperneck 22.216 -8.24329 4.54393
head 11.4478 -4.21266 2.30017
rclavicle 3.83654e-014 -1.98785e-015
rhumerus -30.6281 -10.2921 -77.478
rradius 29.8231
rwrist 23.4726
rhand -20.0456 2.2713
rfingers 7.12502
rthumb 6.29583 -27.6151
lclavicle 3.83654e-014 -1.98785e-015
lhumerus -27.4136 5.5014 87.1233
lradius 38.541
lwrist -6.43804
lhand -11.0517 26.4163
lfingers 7.12502
lthumb 14.9706 55.8552
rfemur -14.0805 3.98352 22.6322
rtibia 28.066
rfoot -17.1929 -2.83673
rtoes 13.4035
lfemur -16.3049 -1.81279 -14.7807
ltibia 26.1385
lfoot -8.22333 12.9827
ltoes -17.6922
14
root -4.21427 17.9636 -4.14853 5.84432 -0.912973 0.768354
lowerback 4.89443 -1.558 -2.30468
upperback 0.619542 -2.15323 2.05897
thorax -1.94073 -1.05284 3.55305
lowerneck -21.0427 -7.74631 -12.1796
upperneck 22.261 -8.05875 4.62766
head 11.4475 -4.12478 2.37292
rclavicle -1.83876e-014 1.82882e-014
rhumerus -30.6138 -10.5267 -77.2042
rradius 29.5985
rwrist 23.4496
rhand -20.2412 2.0523
rfingers 7.12502
rthumb 6.10698 -27.8397
lclavicle -1.83876e-014 1.82882e-014
lhumerus -27.5601 5.40113 87.3077
lradius 38.2793
lwrist -6.59956
lhand -11.3581 26.1112
lfingers 7.12502
lthumb 14.6755 55.5718
rfemur -14.1469 3.95843 22.455
rtibia 28.1253
rfoot -17.2104 -2.86655
rtoes 13.3628
lfemur -16.2895 -1.83106 -14.9886
ltibia 26.04
lfoot -8.01396 13.056
ltoes -17.8404
